# Blender v2.78 (sub 0) OBJ File: ''
# www.blender.org

o websurfaceplaceholder
v 10.819063 0.347126 3.848837
v 10.819063 3.075695 3.848837
v 11.659025 3.075696 2.393981
v 11.659025 0.347127 2.393981
v 11.659025 3.075696 -2.395792
v 11.659025 0.347127 -2.395793
v 10.819969 3.075697 -3.849080
v 10.819969 0.347128 -3.849080
vt 1.0000 0.0000
vt 1.0000 1.0000
vt 0.7938 1.0000
vt 0.7938 0.0000
vt 0.2060 1.0000
vt 0.2060 0.0000
vt 0.0000 1.0000
vt 0.0000 0.0000
vn -0.8660 0.0000 -0.5000
vn -1.0000 0.0000 0.0000
vn -0.8660 0.0000 0.5000
usemtl None
s 1
f 1/1/1 2/2/1 3/3/1
f 4/4/2 3/3/2 5/5/2
f 6/6/3 5/5/3 7/7/3
f 4/4/1 1/1/1 3/3/1
f 6/6/2 4/4/2 5/5/2
f 8/8/3 6/6/3 7/7/3
