# Blender v2.76 (sub 0) OBJ File: 'youtubev2.blend'
# www.blender.org
mtllib s1.mtl
o Plane.000_Plane.008
v 4.869398 0.000003 1.520414
v 4.869398 0.649351 1.710146
v 4.869398 0.449878 1.724413
v 4.869398 0.078945 1.586062
v 4.869399 1.999996 1.520414
v 4.869399 1.921053 1.586062
v 4.869399 1.836721 1.640260
v 4.869399 1.745533 1.681903
v 4.869399 1.649347 1.710146
v 4.869399 1.550121 1.724413
v 4.869398 1.449874 1.724413
v 4.869398 1.350648 1.710146
v 4.869398 1.254462 1.681903
v 4.869399 1.696057 1.697408
v 4.869398 1.302555 1.696025
v 3.479508 0.999999 0.130602
v 3.413861 0.078945 0.130602
v 3.275510 0.449878 0.130602
v 3.289777 0.649351 0.130602
v 3.413861 0.921057 0.130602
v 3.275510 1.550121 0.130602
v 3.289776 1.649347 0.130602
v 3.413861 1.921054 0.130602
v 4.869398 0.999999 1.520414
v 4.869398 0.836724 1.640260
v 4.869398 0.550124 1.724413
v 4.869398 0.254465 1.681903
v 4.869398 0.163278 1.640259
v 3.359663 0.163278 0.130602
v 3.318019 0.254465 0.130602
v 3.275510 0.550124 0.130602
v 3.302515 0.696061 0.130602
v 3.413861 1.078941 0.130602
v 3.289777 1.350648 0.130602
v 3.359663 1.836721 0.130602
v 3.303898 1.302555 0.130602
v 3.302515 1.696057 0.130602
v 4.869398 0.921057 1.586062
v 4.869398 0.745537 1.681903
v 4.869398 0.350651 1.710146
v 4.869398 0.302558 1.696025
v 4.869398 0.696061 1.697408
v 4.869398 1.163274 1.640259
v 4.869398 1.078941 1.586062
v 3.479508 0.000003 0.130602
v 3.289777 0.350651 0.130602
v 3.318019 0.745537 0.130602
v 3.359663 0.836724 0.130602
v 3.303898 0.302558 0.130602
v 3.479508 1.999996 0.130601
v 3.359663 1.163274 0.130602
v 3.318019 1.254462 0.130602
v 3.275510 1.449874 0.130602
v 3.318019 1.745533 0.130602
v 4.868703 0.000003 1.519720
v 4.868608 0.649351 1.709356
v 4.868601 0.449878 1.723616
v 4.868670 0.078945 1.585334
v 4.868703 1.999996 1.519719
v 4.868670 1.921053 1.585334
v 4.868644 1.836721 1.639505
v 4.868623 1.745533 1.681128
v 4.868608 1.649347 1.709356
v 4.868601 1.550121 1.723616
v 4.868601 1.449874 1.723616
v 4.868608 1.350648 1.709356
v 4.868623 1.254462 1.681128
v 4.868615 1.696057 1.696624
v 4.868616 1.302555 1.695242
v 3.480204 0.999999 0.131297
v 3.414588 0.078945 0.131329
v 3.276307 0.449878 0.131399
v 3.290566 0.649351 0.131391
v 3.414589 0.921057 0.131329
v 3.276307 1.550121 0.131398
v 3.290566 1.649347 0.131391
v 3.414588 1.921054 0.131329
v 4.868703 0.999999 1.519719
v 4.868643 0.836724 1.639505
v 4.868601 0.550124 1.723616
v 4.868623 0.254465 1.681128
v 4.868643 0.163278 1.639505
v 3.360418 0.163278 0.131356
v 3.318795 0.254465 0.131377
v 3.276307 0.550124 0.131399
v 3.303298 0.696061 0.131385
v 3.414589 1.078941 0.131329
v 3.290566 1.350648 0.131391
v 3.360418 1.836721 0.131356
v 3.304681 1.302555 0.131384
v 3.303298 1.696057 0.131385
v 4.868670 0.921057 1.585334
v 4.868623 0.745537 1.681128
v 4.868608 0.350651 1.709356
v 4.868616 0.302558 1.695242
v 4.868615 0.696061 1.696624
v 4.868643 1.163274 1.639505
v 4.868670 1.078941 1.585334
v 3.480203 0.000003 0.131297
v 3.290566 0.350651 0.131391
v 3.318795 0.745537 0.131377
v 3.360418 0.836724 0.131356
v 3.304681 0.302558 0.131384
v 3.480203 1.999996 0.131296
v 3.360418 1.163274 0.131356
v 3.318795 1.254462 0.131377
v 3.276307 1.449874 0.131398
v 3.318795 1.745533 0.131377
v 4.868009 0.000003 1.519025
v 4.867819 0.649351 1.708567
v 4.867805 0.449878 1.722820
v 4.867943 0.078945 1.584607
v 4.868009 1.999996 1.519025
v 4.867944 1.921053 1.584607
v 4.867889 1.836721 1.638751
v 4.867848 1.745533 1.680353
v 4.867819 1.649347 1.708567
v 4.867805 1.550121 1.722820
v 4.867805 1.449874 1.722820
v 4.867819 1.350648 1.708567
v 4.867848 1.254462 1.680353
v 4.867832 1.696057 1.695842
v 4.867834 1.302555 1.694460
v 3.480898 0.999999 0.131991
v 3.415316 0.078945 0.132056
v 3.277103 0.449878 0.132195
v 3.291355 0.649350 0.132180
v 3.415316 0.921057 0.132056
v 3.277103 1.550121 0.132195
v 3.291355 1.649347 0.132180
v 3.415316 1.921054 0.132056
v 4.868009 0.999999 1.519025
v 4.867889 0.836724 1.638751
v 4.867805 0.550124 1.722820
v 4.867847 0.254465 1.680353
v 4.867889 0.163278 1.638751
v 3.361172 0.163278 0.132111
v 3.319570 0.254465 0.132152
v 3.277103 0.550124 0.132195
v 3.304081 0.696061 0.132168
v 3.415316 1.078941 0.132056
v 3.291356 1.350648 0.132180
v 3.361172 1.836721 0.132110
v 3.305463 1.302555 0.132166
v 3.304081 1.696057 0.132168
v 4.867943 0.921057 1.584607
v 4.867848 0.745537 1.680353
v 4.867819 0.350651 1.708567
v 4.867834 0.302558 1.694460
v 4.867832 0.696061 1.695842
v 4.867889 1.163274 1.638751
v 4.867943 1.078941 1.584607
v 3.480898 0.000003 0.131991
v 3.291355 0.350651 0.132180
v 3.319570 0.745537 0.132152
v 3.361172 0.836724 0.132111
v 3.305463 0.302558 0.132166
v 3.480897 1.999996 0.131991
v 3.361172 1.163274 0.132111
v 3.319570 1.254462 0.132152
v 3.277103 1.449874 0.132195
v 3.319570 1.745533 0.132152
vt 0.000000 0.000000
vt 0.000016 0.348026
vt 0.000016 0.324671
vt 0.500007 0.324674
vt 0.500007 0.348028
vt 0.999989 0.151285
vt 0.999990 0.175331
vt 0.500008 0.175328
vt 0.500008 0.151282
vt 0.000015 0.372763
vt 0.500007 0.372765
vt 0.999994 0.539465
vt 0.999995 0.581633
vt 0.500006 0.581632
vt 0.500006 0.539464
vt 0.000011 0.539463
vt 0.000013 0.499990
vt 0.500006 0.499991
vt 0.000014 0.418356
vt 0.500007 0.418358
vt 0.000010 0.581631
vt 0.000020 0.175324
vt 0.000021 0.151278
vt 0.000008 0.651274
vt 0.000009 0.627227
vt 0.500005 0.627227
vt 0.500005 0.651274
vt 0.000006 0.724935
vt 0.000008 0.675321
vt 0.500005 0.675321
vt 0.500005 0.724936
vt 0.999993 0.460524
vt 0.999993 0.499993
vt 0.500006 0.460522
vt 0.000005 0.775060
vt 0.500005 0.775060
vt 0.999993 0.418359
vt 0.000002 0.918362
vt 0.000003 0.872768
vt 0.500004 0.872767
vt 0.500004 0.918361
vt 0.999992 0.372767
vt 0.000001 0.960529
vt 0.500003 0.960528
vt 0.999991 0.275064
vt 0.999992 0.324676
vt 0.500008 0.275062
vt 0.000000 1.000000
vt 0.500003 0.999998
vt 0.999991 0.224942
vt 0.500008 0.224940
vt 0.000003 0.848030
vt 0.000004 0.824674
vt 0.500004 0.824674
vt 0.500004 0.848029
vt 0.999987 0.039479
vt 0.999988 0.081646
vt 0.500009 0.081643
vt 0.500009 0.039477
vt 0.999989 0.127238
vt 0.500009 0.127236
vt 0.999992 0.348030
vt 0.999986 0.000009
vt 0.500009 0.000005
vt 1.000000 0.960525
vt 1.000000 0.999996
vt 0.999996 0.627228
vt 0.999999 0.918359
vt 0.999999 0.872766
vt 0.999996 0.651274
vt 0.999998 0.775059
vt 0.999999 0.824672
vt 0.999999 0.848028
vt 0.999998 0.724935
vt 0.000024 0.039471
vt 0.999997 0.675321
vt 0.000023 0.081638
vt 0.000022 0.127231
vt 0.000019 0.224937
vt 0.000013 0.460521
vt 0.000018 0.275059
vn -0.692600 0.201100 0.692700
vn -0.700000 0.141200 0.700000
vn -0.699600 0.145400 0.699600
vn -0.692400 0.202900 0.692400
vn -0.692400 -0.203400 0.692300
vn -0.699400 -0.147400 0.699400
vn -0.698800 -0.152500 0.698800
vn -0.692300 -0.203400 0.692300
vn -0.683800 0.254500 0.683800
vn -0.682400 0.262100 0.682400
vn -0.632200 -0.447600 0.632300
vn -0.662600 -0.348900 0.662700
vn -0.659400 -0.361100 0.659400
vn -0.627500 -0.461000 0.627500
vn -0.632200 -0.447700 0.632300
vn -0.707000 0.000000 0.707200
vn -0.707100 0.000000 0.707100
vn -0.627500 -0.460900 0.627500
vn -0.662600 0.349000 0.662600
vn -0.659400 0.361100 0.659400
vn -0.699400 -0.147300 0.699400
vn -0.692300 -0.203300 0.692300
vn -0.698800 -0.152400 0.698800
vn -0.692300 -0.203300 0.692400
vn -0.685100 -0.247100 0.685300
vn -0.683600 -0.255700 0.683600
vn -0.706200 -0.049000 0.706300
vn -0.706200 -0.050600 0.706200
vn -0.632300 0.447600 0.632300
vn -0.627400 0.461000 0.627500
vn -0.706200 0.048900 0.706300
vn -0.706200 0.050600 0.706200
vn -0.662700 0.348900 0.662600
vn -0.662600 0.348900 0.662700
vn -0.683800 0.254500 0.683900
vn -0.682300 0.262100 0.682400
vn -0.682400 0.262200 0.682300
vn -0.632200 0.447800 0.632300
vn -0.627500 0.460900 0.627600
vn -0.706300 0.049000 0.706200
vn -0.700000 0.141300 0.700000
vn -0.706100 0.050600 0.706200
vn -0.609500 0.506900 0.609500
vn -0.609500 0.506800 0.609600
vn -0.706300 -0.049000 0.706200
vn -0.706100 -0.050600 0.706200
vn -0.699900 0.141200 0.700100
vn -0.685200 -0.247200 0.685000
vn -0.692600 0.201200 0.692600
vn -0.609500 -0.506900 0.609500
vn -0.609600 -0.506700 0.609600
vn -0.632200 0.447600 0.632400
vn -0.609200 0.507100 0.609600
vn -0.627400 0.460900 0.627600
vn -0.685200 -0.247200 0.685100
vn -0.662600 0.348900 0.662800
vn -0.659300 0.361100 0.659500
vn -0.683700 0.254600 0.683900
vn -0.682300 0.262200 0.682400
vn -0.706100 0.049000 0.706400
vn -0.699500 0.145400 0.699700
vn -0.692300 0.202900 0.692500
vn -0.632300 -0.447800 0.632200
vn -0.662600 -0.349000 0.662600
vn -0.685100 -0.247100 0.685200
vn -0.632200 0.447700 0.632300
vn -0.699200 0.149300 0.699100
vn -0.692200 0.204600 0.692100
vn -0.698300 -0.157200 0.698300
vn -0.681000 0.269300 0.681000
vn -0.656200 -0.372700 0.656100
vn -0.622900 -0.473300 0.622800
vn -0.622900 -0.473400 0.622800
vn -0.656200 0.372400 0.656200
vn -0.656300 -0.372400 0.656100
vn -0.698300 -0.157100 0.698300
vn -0.682100 -0.263700 0.682000
vn -0.706100 -0.052200 0.706100
vn -0.622800 0.473400 0.622900
vn -0.706200 0.052200 0.706100
vn -0.656100 0.372700 0.656100
vn -0.656100 0.372400 0.656300
vn -0.681000 0.269400 0.680900
vn -0.622800 0.473300 0.623000
vn -0.699100 0.149300 0.699200
vn -0.706000 0.052200 0.706300
vn -0.706000 -0.052200 0.706200
vn -0.699300 0.149300 0.699100
vn -0.622900 -0.473200 0.622900
vn -0.682000 -0.263700 0.682100
vn -0.609700 -0.506500 0.609700
vn -0.609700 0.506600 0.609600
vn -0.622900 0.473200 0.622900
vn -0.656100 0.372500 0.656200
vn -0.680900 0.269400 0.681000
vn -0.699100 0.149400 0.699200
vn -0.692000 0.204600 0.692200
vn -0.706200 -0.052200 0.706000
vn -0.622900 -0.473300 0.622900
vn -0.698400 -0.157200 0.698200
vn -0.656200 -0.372400 0.656200
vn -0.682100 -0.263600 0.682100
vn -0.706100 -0.052200 0.706200
vn -0.622900 0.473300 0.622900
vn -0.706100 0.052200 0.706200
usemtl wallinside
s 1
f 32/1/1 19/1/2 73/1/3 86/1/4
f 41/1/5 40/1/6 94/1/7 95/1/8
f 47/1/9 32/1/1 86/1/4 101/1/10
f 44/1/11 43/1/12 97/1/13 98/1/14
f 33/1/15 16/1/16 70/1/17 87/1/18
f 48/1/19 47/1/9 101/1/10 102/1/20
f 51/1/12 33/1/15 87/1/18 105/1/13
f 46/1/21 49/1/22 103/1/22 100/1/23
f 36/1/24 52/1/25 106/1/26 90/1/24
f 52/1/25 51/1/12 105/1/13 106/1/26
f 53/1/27 34/1/21 88/1/23 107/1/28
f 38/1/29 24/1/17 78/1/17 92/1/30
f 21/1/31 53/1/27 107/1/28 75/1/32
f 25/1/33 38/1/29 92/1/30 79/1/20
f 35/1/34 54/1/35 108/1/36 89/1/20
f 39/1/9 25/1/33 79/1/20 93/1/37
f 23/1/38 35/1/34 89/1/20 77/1/39
f 26/1/40 2/1/41 56/1/3 80/1/42
f 50/1/43 23/1/38 77/1/39 104/1/44
f 3/1/45 26/1/40 80/1/42 57/1/46
f 34/1/21 36/1/24 90/1/24 88/1/23
f 40/1/6 3/1/45 57/1/46 94/1/7
f 37/1/1 22/1/47 76/1/3 91/1/4
f 4/1/11 28/1/12 82/1/13 58/1/18
f 54/1/35 37/1/1 91/1/4 108/1/36
f 27/1/48 41/1/5 95/1/8 81/1/26
f 42/1/49 39/1/9 93/1/37 96/1/4
f 1/1/50 4/1/11 58/1/18 55/1/51
f 2/1/41 42/1/49 96/1/4 56/1/3
f 6/1/52 5/1/53 59/1/44 60/1/54
f 43/1/12 13/1/55 67/1/26 97/1/13
f 7/1/56 6/1/52 60/1/54 61/1/57
f 24/1/17 44/1/11 98/1/14 78/1/17
f 8/1/58 7/1/56 61/1/57 62/1/59
f 13/1/55 15/1/5 69/1/8 67/1/26
f 10/1/60 9/1/47 63/1/61 64/1/42
f 9/1/47 14/1/1 68/1/62 63/1/61
f 11/1/27 10/1/60 64/1/42 65/1/28
f 17/1/63 45/1/50 99/1/50 71/1/18
f 12/1/6 11/1/27 65/1/28 66/1/7
f 29/1/64 17/1/63 71/1/18 83/1/13
f 15/1/5 12/1/6 66/1/7 69/1/8
f 49/1/22 30/1/65 84/1/26 103/1/22
f 14/1/1 8/1/58 62/1/59 68/1/62
f 18/1/45 46/1/21 100/1/23 72/1/28
f 16/1/16 20/1/66 74/1/39 70/1/17
f 31/1/40 18/1/45 72/1/28 85/1/32
f 22/1/47 21/1/31 75/1/32 76/1/3
f 19/1/2 31/1/40 85/1/32 73/1/3
f 28/1/12 27/1/48 81/1/26 82/1/13
f 20/1/66 48/1/19 102/1/20 74/1/39
f 30/1/65 29/1/64 83/1/13 84/1/26
usemtl wallinside_youtubepage.jpg
f 86/2/4 73/3/3 127/4/67 140/5/68
f 95/6/8 94/7/7 148/8/69 149/9/24
f 101/10/10 86/2/4 140/5/68 155/11/70
f 98/12/14 97/13/13 151/14/71 152/15/72
f 87/16/18 70/17/17 124/18/17 141/15/73
f 102/19/20 101/10/10 155/11/70 156/20/74
f 105/21/13 87/16/18 141/15/73 159/14/75
f 100/22/23 103/23/22 157/9/22 154/8/76
f 90/24/24 106/25/26 160/26/77 144/27/22
f 106/25/26 105/21/13 159/14/75 160/26/77
f 107/28/28 88/29/23 142/30/76 161/31/78
f 92/32/30 78/33/17 132/18/17 146/34/79
f 75/35/32 107/28/28 161/31/78 129/36/80
f 79/37/20 92/32/30 146/34/79 133/20/81
f 89/38/20 108/39/36 162/40/70 143/41/82
f 93/42/37 79/37/20 133/20/81 147/11/83
f 77/43/39 89/38/20 143/41/82 131/44/84
f 80/45/42 56/46/3 110/4/85 134/47/86
f 104/48/44 77/43/39 131/44/84 158/49/44
f 57/50/46 80/45/42 134/47/86 111/51/87
f 88/29/23 90/24/24 144/27/22 142/30/76
f 94/7/7 57/50/46 111/51/87 148/8/69
f 91/52/4 76/53/3 130/54/88 145/55/68
f 58/56/18 82/57/13 136/58/71 112/59/89
f 108/39/36 91/52/4 145/55/68 162/40/70
f 81/60/26 95/6/8 149/9/24 135/61/90
f 96/62/4 93/42/37 147/11/83 150/5/68
f 55/63/51 58/56/18 112/59/89 109/64/91
f 56/46/3 96/62/4 150/5/68 110/4/85
f 60/65/54 59/66/44 113/49/92 114/44/93
f 97/13/13 67/67/26 121/26/77 151/14/71
f 61/68/57 60/65/54 114/44/93 115/41/94
f 78/33/17 98/12/14 152/15/72 132/18/17
f 62/69/59 61/68/57 115/41/94 116/40/95
f 67/67/26 69/70/8 123/27/22 121/26/77
f 64/71/42 63/72/61 117/54/96 118/36/80
f 63/72/61 68/73/62 122/55/97 117/54/96
f 65/74/28 64/71/42 118/36/80 119/31/98
f 71/75/18 99/1/50 153/64/50 125/59/99
f 66/76/7 65/74/28 119/31/98 120/30/100
f 83/77/13 71/75/18 125/59/99 137/58/101
f 69/70/8 66/76/7 120/30/100 123/27/22
f 103/23/22 84/78/26 138/61/102 157/9/22
f 68/73/62 62/69/59 116/40/95 122/55/97
f 72/79/28 100/22/23 154/8/76 126/51/103
f 70/17/17 74/80/39 128/34/104 124/18/17
f 85/81/32 72/79/28 126/51/103 139/47/105
f 76/53/3 75/35/32 129/36/80 130/54/88
f 73/3/3 85/81/32 139/47/105 127/4/67
f 82/57/13 81/60/26 135/61/90 136/58/71
f 74/80/39 102/19/20 156/20/74 128/34/104
f 84/78/26 83/77/13 137/58/101 138/61/102
