# Blender v2.76 (sub 0) OBJ File: 'youtubev2.blend'
# www.blender.org
mtllib s1a.mtl
o Plane.013_Plane.012
v -0.130602 0.000003 -3.479586
v -0.130602 0.649351 -3.289854
v -0.130602 0.449878 -3.275587
v -0.130602 0.078945 -3.413938
v -0.130602 1.999995 -3.479586
v -0.130602 1.921053 -3.413938
v -0.130602 1.836720 -3.359740
v -0.130602 1.745533 -3.318097
v -0.130602 1.649347 -3.289854
v -0.130602 1.550120 -3.275587
v -0.130602 1.449874 -3.275587
v -0.130602 1.350648 -3.289854
v -0.130602 1.254462 -3.318097
v -0.130602 1.696057 -3.302592
v -0.130602 1.302555 -3.303975
v -1.520491 0.999999 -4.869399
v -1.586139 0.078945 -4.869398
v -1.724490 0.449878 -4.869398
v -1.710223 0.649350 -4.869399
v -1.586139 0.921057 -4.869399
v -1.724490 1.550121 -4.869399
v -1.710224 1.649347 -4.869399
v -1.586139 1.921053 -4.869399
v -0.130602 0.999999 -3.479586
v -0.130602 0.836724 -3.359740
v -0.130602 0.550124 -3.275587
v -0.130602 0.254465 -3.318097
v -0.130602 0.163278 -3.359741
v -1.640337 0.163278 -4.869399
v -1.681981 0.254465 -4.869399
v -1.724490 0.550124 -4.869399
v -1.697485 0.696061 -4.869399
v -1.586139 1.078941 -4.869399
v -1.710223 1.350648 -4.869399
v -1.640337 1.836720 -4.869399
v -1.696102 1.302555 -4.869399
v -1.697485 1.696057 -4.869399
v -0.130602 0.921057 -3.413938
v -0.130602 0.745536 -3.318097
v -0.130602 0.350651 -3.289854
v -0.130602 0.302558 -3.303975
v -0.130602 0.696061 -3.302592
v -0.130602 1.163274 -3.359741
v -0.130602 1.078941 -3.413938
v -1.520492 0.000003 -4.869398
v -1.710223 0.350651 -4.869399
v -1.681981 0.745537 -4.869399
v -1.640337 0.836724 -4.869399
v -1.696102 0.302558 -4.869399
v -1.520492 1.999995 -4.869399
v -1.640337 1.163274 -4.869399
v -1.681980 1.254462 -4.869399
v -1.724490 1.449874 -4.869399
v -1.681981 1.745533 -4.869399
v -0.131297 0.000003 -3.480280
v -0.131392 0.649351 -3.290644
v -0.131399 0.449878 -3.276384
v -0.131330 0.078945 -3.414666
v -0.131297 1.999996 -3.480281
v -0.131329 1.921053 -3.414666
v -0.131356 1.836720 -3.360495
v -0.131377 1.745533 -3.318872
v -0.131391 1.649347 -3.290644
v -0.131399 1.550120 -3.276384
v -0.131399 1.449874 -3.276384
v -0.131391 1.350648 -3.290644
v -0.131377 1.254462 -3.318872
v -0.131385 1.696057 -3.303376
v -0.131384 1.302555 -3.304758
v -1.519796 0.999999 -4.868703
v -1.585411 0.078945 -4.868670
v -1.723693 0.449878 -4.868601
v -1.709434 0.649350 -4.868608
v -1.585411 0.921057 -4.868671
v -1.723693 1.550121 -4.868601
v -1.709434 1.649347 -4.868608
v -1.585412 1.921053 -4.868671
v -0.131297 0.999999 -3.480280
v -0.131357 0.836724 -3.360495
v -0.131399 0.550124 -3.276384
v -0.131377 0.254465 -3.318872
v -0.131357 0.163278 -3.360495
v -1.639582 0.163278 -4.868644
v -1.681205 0.254465 -4.868623
v -1.723693 0.550124 -4.868601
v -1.696702 0.696061 -4.868615
v -1.585411 1.078941 -4.868670
v -1.709433 1.350648 -4.868608
v -1.639582 1.836720 -4.868644
v -1.695319 1.302555 -4.868616
v -1.696702 1.696057 -4.868615
v -0.131329 0.921057 -3.414666
v -0.131377 0.745536 -3.318872
v -0.131392 0.350651 -3.290644
v -0.131385 0.302558 -3.304758
v -0.131385 0.696061 -3.303376
v -0.131357 1.163274 -3.360495
v -0.131329 1.078941 -3.414666
v -1.519797 0.000003 -4.868703
v -1.709434 0.350651 -4.868608
v -1.681205 0.745536 -4.868623
v -1.639582 0.836724 -4.868644
v -1.695319 0.302558 -4.868616
v -1.519797 1.999995 -4.868704
v -1.639582 1.163274 -4.868644
v -1.681205 1.254462 -4.868623
v -1.723693 1.449874 -4.868601
v -1.681205 1.745533 -4.868623
v -0.131991 0.000003 -3.480975
v -0.132181 0.649351 -3.291433
v -0.132195 0.449878 -3.277180
v -0.132057 0.078945 -3.415393
v -0.131991 1.999996 -3.480975
v -0.132056 1.921053 -3.415393
v -0.132111 1.836721 -3.361249
v -0.132152 1.745533 -3.319647
v -0.132180 1.649347 -3.291433
v -0.132195 1.550120 -3.277180
v -0.132195 1.449874 -3.277180
v -0.132180 1.350648 -3.291433
v -0.132152 1.254462 -3.319647
v -0.132168 1.696057 -3.304158
v -0.132166 1.302555 -3.305540
v -1.519102 0.999999 -4.868009
v -1.584684 0.078945 -4.867944
v -1.722897 0.449877 -4.867805
v -1.708645 0.649350 -4.867820
v -1.584684 0.921057 -4.867944
v -1.722897 1.550121 -4.867805
v -1.708645 1.649347 -4.867820
v -1.584684 1.921053 -4.867944
v -0.131991 0.999999 -3.480975
v -0.132111 0.836724 -3.361249
v -0.132195 0.550124 -3.277180
v -0.132152 0.254465 -3.319647
v -0.132111 0.163278 -3.361249
v -1.638828 0.163278 -4.867889
v -1.680430 0.254465 -4.867848
v -1.722897 0.550124 -4.867805
v -1.695919 0.696060 -4.867832
v -1.584684 1.078941 -4.867944
v -1.708645 1.350647 -4.867820
v -1.638828 1.836720 -4.867889
v -1.694537 1.302555 -4.867834
v -1.695919 1.696057 -4.867832
v -0.132057 0.921057 -3.415393
v -0.132152 0.745537 -3.319647
v -0.132181 0.350651 -3.291433
v -0.132166 0.302558 -3.305540
v -0.132168 0.696061 -3.304158
v -0.132111 1.163274 -3.361249
v -0.132057 1.078941 -3.415393
v -1.519102 0.000003 -4.868009
v -1.708645 0.350651 -4.867820
v -1.680430 0.745536 -4.867848
v -1.638828 0.836724 -4.867889
v -1.694537 0.302558 -4.867834
v -1.519102 1.999995 -4.868010
v -1.638828 1.163274 -4.867889
v -1.680430 1.254462 -4.867848
v -1.722897 1.449874 -4.867805
v -1.680430 1.745533 -4.867848
vt 0.000000 0.000000
vt 0.000016 0.348026
vt 0.000016 0.324671
vt 0.500007 0.324674
vt 0.500007 0.348028
vt 0.999989 0.151285
vt 0.999990 0.175331
vt 0.500008 0.175328
vt 0.500008 0.151282
vt 0.000015 0.372763
vt 0.500007 0.372765
vt 0.999994 0.539465
vt 0.999995 0.581633
vt 0.500006 0.581632
vt 0.500006 0.539464
vt 0.000011 0.539463
vt 0.000013 0.499990
vt 0.500006 0.499991
vt 0.000014 0.418356
vt 0.500007 0.418358
vt 0.000010 0.581631
vt 0.000020 0.175324
vt 0.000021 0.151278
vt 0.000008 0.651274
vt 0.000009 0.627227
vt 0.500005 0.627227
vt 0.500005 0.651274
vt 0.000006 0.724935
vt 0.000008 0.675321
vt 0.500005 0.675321
vt 0.500005 0.724936
vt 0.999993 0.460524
vt 0.999993 0.499993
vt 0.500006 0.460522
vt 0.000005 0.775060
vt 0.500005 0.775060
vt 0.999993 0.418359
vt 0.000002 0.918362
vt 0.000003 0.872768
vt 0.500004 0.872767
vt 0.500004 0.918361
vt 0.999992 0.372767
vt 0.000001 0.960529
vt 0.500003 0.960528
vt 0.999991 0.275064
vt 0.999992 0.324676
vt 0.500008 0.275062
vt 0.000000 1.000000
vt 0.500003 0.999998
vt 0.999991 0.224942
vt 0.500008 0.224940
vt 0.000003 0.848030
vt 0.000004 0.824674
vt 0.500004 0.824674
vt 0.500004 0.848029
vt 0.999987 0.039479
vt 0.999988 0.081646
vt 0.500009 0.081643
vt 0.500009 0.039477
vt 0.999989 0.127238
vt 0.500009 0.127236
vt 0.999992 0.348030
vt 0.999986 0.000009
vt 0.500009 0.000005
vt 1.000000 0.960525
vt 1.000000 0.999996
vt 0.999996 0.627228
vt 0.999999 0.918359
vt 0.999999 0.872766
vt 0.999996 0.651274
vt 0.999998 0.775059
vt 0.999999 0.824672
vt 0.999999 0.848028
vt 0.999998 0.724935
vt 0.000024 0.039471
vt 0.999997 0.675321
vt 0.000023 0.081638
vt 0.000022 0.127231
vt 0.000019 0.224937
vt 0.000013 0.460521
vt 0.000018 0.275059
vn -0.692700 0.201100 0.692600
vn -0.700100 0.141200 0.699900
vn -0.699500 0.145400 0.699600
vn -0.692400 0.202900 0.692300
vn -0.692300 -0.203300 0.692300
vn -0.699400 -0.147300 0.699300
vn -0.698800 -0.152400 0.698800
vn -0.683900 0.254500 0.683700
vn -0.682500 0.262100 0.682200
vn -0.632100 -0.447800 0.632300
vn -0.662500 -0.349000 0.662700
vn -0.659300 -0.361100 0.659400
vn -0.627500 -0.461000 0.627500
vn -0.632400 -0.447800 0.632100
vn -0.707300 0.000000 0.706900
vn -0.707200 0.000000 0.707000
vn -0.627600 -0.460900 0.627400
vn -0.662700 0.348900 0.662600
vn -0.659400 0.361100 0.659400
vn -0.662700 -0.349000 0.662600
vn -0.659500 -0.361100 0.659300
vn -0.699400 -0.147400 0.699300
vn -0.692500 -0.203300 0.692200
vn -0.692400 -0.203300 0.692300
vn -0.685400 -0.247100 0.685000
vn -0.683700 -0.255700 0.683500
vn -0.706500 -0.049000 0.706000
vn -0.699600 -0.147300 0.699200
vn -0.706200 -0.050600 0.706200
vn -0.632100 0.447800 0.632300
vn -0.707100 0.000000 0.707100
vn -0.707000 0.000000 0.707100
vn -0.627400 0.461000 0.627600
vn -0.706400 0.049000 0.706000
vn -0.706200 0.050600 0.706200
vn -0.662500 0.349000 0.662700
vn -0.659300 0.361100 0.659400
vn -0.682500 0.262100 0.682300
vn -0.683600 0.254500 0.684000
vn -0.682300 0.262100 0.682400
vn -0.632300 0.447700 0.632300
vn -0.627400 0.460900 0.627600
vn -0.706200 0.049000 0.706300
vn -0.700000 0.141200 0.700000
vn -0.609500 0.506800 0.609600
vn -0.609600 0.506800 0.609500
vn -0.706200 -0.049000 0.706300
vn -0.692800 0.201100 0.692500
vn -0.700200 0.141200 0.699800
vn -0.699600 0.145400 0.699600
vn -0.692500 0.202800 0.692300
vn -0.627400 -0.461000 0.627600
vn -0.685100 -0.247100 0.685200
vn -0.683600 -0.255700 0.683600
vn -0.692600 0.201100 0.692700
vn -0.692400 0.202900 0.692400
vn -0.609400 -0.506900 0.609600
vn -0.632000 0.447900 0.632400
vn -0.609200 0.507000 0.609700
vn -0.609500 0.506900 0.609500
vn -0.683700 0.254500 0.683900
vn -0.682400 0.262100 0.682400
vn -0.699900 0.141200 0.700100
vn -0.706100 0.050600 0.706300
vn -0.692500 0.201100 0.692700
vn -0.706100 -0.050600 0.706200
vn -0.632100 -0.447800 0.632400
vn -0.609700 -0.506700 0.609500
vn -0.609500 -0.506800 0.609500
vn -0.627500 -0.460900 0.627500
vn -0.699300 -0.147300 0.699400
vn -0.698800 -0.152400 0.698900
vn -0.662600 -0.349000 0.662700
vn -0.659400 -0.361100 0.659400
vn -0.683600 -0.255700 0.683500
vn -0.706100 -0.050600 0.706300
vn -0.632300 0.447700 0.632200
vn -0.627500 0.460900 0.627500
vn -0.706300 0.049000 0.706200
vn -0.699000 0.149300 0.699300
vn -0.692200 0.204500 0.692000
vn -0.698200 -0.157100 0.698400
vn -0.692300 -0.203300 0.692400
vn -0.681100 0.269300 0.680800
vn -0.656200 -0.372400 0.656200
vn -0.622800 -0.473300 0.622900
vn -0.656200 0.372500 0.656200
vn -0.656300 -0.372400 0.656200
vn -0.698300 -0.157100 0.698400
vn -0.682100 -0.263600 0.682000
vn -0.705900 -0.052200 0.706400
vn -0.707000 0.000000 0.707200
vn -0.622800 0.473400 0.622900
vn -0.705900 0.052200 0.706300
vn -0.656100 0.372400 0.656300
vn -0.681100 0.269200 0.680900
vn -0.681000 0.269300 0.680900
vn -0.622900 0.473400 0.622900
vn -0.699100 0.149300 0.699200
vn -0.706100 0.052200 0.706100
vn -0.609600 0.506900 0.609500
vn -0.706100 -0.052200 0.706100
vn -0.692200 0.204500 0.692100
vn -0.622800 -0.473400 0.622900
vn -0.609700 0.506800 0.609400
vn -0.622900 0.473300 0.622800
vn -0.656200 0.372400 0.656200
vn -0.681100 0.269300 0.680900
vn -0.699200 0.149300 0.699100
vn -0.706100 0.052200 0.706200
vn -0.609500 -0.506800 0.609600
vn -0.622900 -0.473300 0.622900
vn -0.698200 -0.157200 0.698400
vn -0.656300 -0.372400 0.656100
vn -0.682100 -0.263700 0.682100
vn -0.705900 -0.052200 0.706300
vn -0.622800 0.473300 0.622900
usemtl wallinside
s 1
f 32/1/1 19/1/2 73/1/3 86/1/4
f 41/1/5 40/1/6 94/1/7 95/1/5
f 47/1/8 32/1/1 86/1/4 101/1/9
f 44/1/10 43/1/11 97/1/12 98/1/13
f 33/1/14 16/1/15 70/1/16 87/1/17
f 48/1/18 47/1/8 101/1/9 102/1/19
f 51/1/20 33/1/14 87/1/17 105/1/21
f 46/1/22 49/1/23 103/1/24 100/1/7
f 36/1/23 52/1/25 106/1/26 90/1/24
f 52/1/25 51/1/20 105/1/21 106/1/26
f 53/1/27 34/1/28 88/1/7 107/1/29
f 38/1/30 24/1/31 78/1/32 92/1/33
f 21/1/34 53/1/27 107/1/29 75/1/35
f 25/1/36 38/1/30 92/1/33 79/1/37
f 35/1/18 54/1/8 108/1/38 89/1/19
f 39/1/39 25/1/36 79/1/37 93/1/40
f 23/1/41 35/1/18 89/1/19 77/1/42
f 26/1/43 2/1/44 56/1/3 80/1/35
f 50/1/45 23/1/41 77/1/42 104/1/46
f 3/1/47 26/1/43 80/1/35 57/1/29
f 34/1/28 36/1/23 90/1/24 88/1/7
f 40/1/6 3/1/47 57/1/29 94/1/7
f 37/1/48 22/1/49 76/1/50 91/1/51
f 4/1/10 28/1/11 82/1/12 58/1/52
f 54/1/8 37/1/48 91/1/51 108/1/38
f 27/1/53 41/1/5 95/1/5 81/1/54
f 42/1/55 39/1/39 93/1/40 96/1/56
f 1/1/57 4/1/10 58/1/52 55/1/57
f 2/1/44 42/1/55 96/1/56 56/1/3
f 6/1/58 5/1/59 59/1/60 60/1/33
f 43/1/11 13/1/53 67/1/54 97/1/12
f 7/1/36 6/1/58 60/1/33 61/1/19
f 24/1/31 44/1/10 98/1/13 78/1/32
f 8/1/61 7/1/36 61/1/19 62/1/62
f 13/1/53 15/1/5 69/1/5 67/1/54
f 10/1/43 9/1/63 63/1/3 64/1/64
f 9/1/63 14/1/65 68/1/56 63/1/3
f 11/1/47 10/1/43 64/1/64 65/1/66
f 17/1/67 45/1/68 99/1/69 71/1/70
f 12/1/71 11/1/47 65/1/66 66/1/72
f 29/1/73 17/1/67 71/1/70 83/1/74
f 15/1/5 12/1/71 66/1/72 69/1/5
f 49/1/23 30/1/25 84/1/75 103/1/24
f 14/1/65 8/1/61 62/1/62 68/1/56
f 18/1/47 46/1/22 100/1/7 72/1/76
f 16/1/15 20/1/77 74/1/78 70/1/16
f 31/1/79 18/1/47 72/1/76 85/1/64
f 22/1/49 21/1/34 75/1/35 76/1/50
f 19/1/2 31/1/79 85/1/64 73/1/3
f 28/1/11 27/1/53 81/1/54 82/1/12
f 20/1/77 48/1/18 102/1/19 74/1/78
f 30/1/25 29/1/73 83/1/74 84/1/75
usemtl wallinside_youtubepage.jpg
f 86/2/4 73/3/3 127/4/80 140/5/81
f 95/6/5 94/7/7 148/8/82 149/9/83
f 101/10/9 86/2/4 140/5/81 155/11/84
f 98/12/13 97/13/12 151/14/85 152/15/86
f 87/16/17 70/17/16 124/18/31 141/15/86
f 102/19/19 101/10/9 155/11/84 156/20/87
f 105/21/21 87/16/17 141/15/86 159/14/88
f 100/22/7 103/23/24 157/9/83 154/8/89
f 90/24/24 106/25/26 160/26/90 144/27/83
f 106/25/26 105/21/21 159/14/88 160/26/90
f 107/28/29 88/29/7 142/30/82 161/31/91
f 92/32/33 78/33/32 132/18/92 146/34/93
f 75/35/35 107/28/29 161/31/91 129/36/94
f 79/37/37 92/32/33 146/34/93 133/20/95
f 89/38/19 108/39/38 162/40/96 143/41/95
f 93/42/40 79/37/37 133/20/95 147/11/97
f 77/43/42 89/38/19 143/41/95 131/44/98
f 80/45/35 56/46/3 110/4/99 134/47/100
f 104/48/46 77/43/42 131/44/98 158/49/101
f 57/50/29 80/45/35 134/47/100 111/51/102
f 88/29/7 90/24/24 144/27/83 142/30/82
f 94/7/7 57/50/29 111/51/102 148/8/82
f 91/52/51 76/53/50 130/54/80 145/55/103
f 58/56/52 82/57/12 136/58/85 112/59/104
f 108/39/38 91/52/51 145/55/103 162/40/96
f 81/60/54 95/6/5 149/9/83 135/61/90
f 96/62/56 93/42/40 147/11/97 150/5/103
f 55/63/57 58/56/52 112/59/104 109/64/57
f 56/46/3 96/62/56 150/5/103 110/4/99
f 60/65/33 59/66/60 113/49/105 114/44/106
f 97/13/12 67/67/54 121/26/90 151/14/85
f 61/68/19 60/65/33 114/44/106 115/41/107
f 78/33/32 98/12/13 152/15/86 132/18/92
f 62/69/62 61/68/19 115/41/107 116/40/108
f 67/67/54 69/70/5 123/27/5 121/26/90
f 64/71/64 63/72/3 117/54/109 118/36/110
f 63/72/3 68/73/56 122/55/103 117/54/109
f 65/74/66 64/71/64 118/36/110 119/31/102
f 71/75/70 99/1/69 153/64/111 125/59/112
f 66/76/72 65/74/66 119/31/102 120/30/113
f 83/77/74 71/75/70 125/59/112 137/58/114
f 69/70/5 66/76/72 120/30/113 123/27/5
f 103/23/24 84/78/75 138/61/115 157/9/83
f 68/73/56 62/69/62 116/40/108 122/55/103
f 72/79/76 100/22/7 154/8/89 126/51/116
f 70/17/16 74/80/78 128/34/117 124/18/31
f 85/81/64 72/79/76 126/51/116 139/47/94
f 76/53/50 75/35/35 129/36/94 130/54/80
f 73/3/3 85/81/64 139/47/94 127/4/80
f 82/57/12 81/60/54 135/61/90 136/58/85
f 74/80/78 102/19/19 156/20/87 128/34/117
f 84/78/75 83/77/74 137/58/114 138/61/115
