# Blender v2.76 (sub 0) OBJ File: 'youtubev3.blend'
# www.blender.org
mtllib youtubecol.mtl
o Plane.021_Plane.035
v -5.000111 3.657932 -4.999888
v 4.999888 3.657932 5.000110
v -12.745646 3.657932 3.995649
v -12.134773 3.657932 5.669219
v -12.848510 3.657932 3.473512
v -12.609922 3.657932 4.484926
v -5.669217 3.657932 12.134775
v -4.484923 3.657932 12.609925
v -3.995648 3.657932 12.745648
v -3.473511 3.657932 12.848511
v -5.641217 3.657932 12.106771
v -6.982722 3.657932 11.357718
v -8.418804 3.657932 10.293800
v -9.704641 3.657932 9.079638
v -10.845803 3.657932 7.720799
v -11.824402 3.657932 6.199399
v -12.106772 3.657932 5.641213
v -12.267514 3.657932 5.392518
v -5.392515 3.657932 12.267517
v -12.905428 3.657932 2.905432
v -2.905430 3.657932 12.905428
v -5.000110 0.003742 -4.999888
v -4.935444 -0.001485 -4.935222
v -4.922758 -0.001473 -4.999889
v -4.997907 0.055967 -4.997684
v -4.991446 0.037272 -4.991224
v -4.981170 0.021219 -4.980947
v -4.967777 0.008900 -4.967555
v -4.952181 0.001156 -4.951959
v -12.905428 -1.022273 2.905428
v -12.840762 -1.027500 2.970094
v -3.944753 -1.030055 12.637252
v -3.963217 -1.025431 12.713214
v -4.428823 -1.032939 12.502972
v -4.452494 -1.028339 12.577491
v -5.328455 -1.037557 12.163551
v -5.360085 -1.032987 12.235083
v -6.939384 -1.043627 11.289474
v -6.980825 -1.039084 11.355824
v -8.367379 -1.046673 10.231331
v -8.416908 -1.042145 10.291905
v -10.781883 -1.045475 7.671207
v -10.843907 -1.040944 7.718904
v -12.163553 -1.037560 5.328452
v -12.235085 -1.032986 5.360083
v -12.577494 -1.028338 4.452491
v -12.502975 -1.032945 4.428822
v -12.713218 -1.025430 3.963216
v -9.646640 -1.047259 9.023195
v -9.702745 -1.042735 9.077743
v -11.753950 -1.041034 6.159820
v -11.822506 -1.036480 6.197503
v 4.905588 -0.001486 4.905810
v 4.999888 0.003741 5.000110
v 4.999888 -0.001474 4.922758
v 4.929995 0.001156 4.930217
v 4.952738 0.008899 4.952960
v 4.972268 0.021218 4.972490
v 4.987254 0.037271 4.987476
v 4.996675 0.055966 4.996897
v -2.905428 -1.022273 12.905428
v -2.999728 -1.027500 12.811129
v 4.999944 -0.000737 -0.038621
v 0.038621 -0.000737 -4.999945
v 0.028288 0.000008 -0.028288
v -5.072121 3.657932 -4.850526
v 4.850526 3.657932 5.072120
v 4.850582 3.657932 0.110741
v -0.110742 3.657932 -4.850582
v -0.058499 3.657932 -1.001278
v 0.038621 -0.000737 -4.999945
v -4.922758 -0.001473 -4.999889
v 4.999888 -0.001474 4.922758
v 4.999944 -0.000737 -0.038621
v -0.110742 3.657932 -4.850582
v 4.850582 3.657932 0.110741
v 0.986729 3.657932 0.058529
v 0.926360 3.657932 0.118897
v 0.986729 3.657932 0.058529
v -0.118867 3.657932 -0.940909
v -0.058499 3.657932 -1.001278
v 4.910950 -0.057047 0.050373
v -0.050373 -0.057047 -4.910950
v 0.986729 -0.056459 0.058529
v -0.058499 -0.056461 -1.001278
v -4.922758 -0.001473 -4.999889
v -4.997907 0.055967 -4.997684
v 4.999888 -0.001474 4.922758
v 4.996675 0.055966 4.996897
v -12.905428 3.657932 2.905432
v -12.905428 -1.022273 2.905428
v -2.905430 3.657932 12.905428
v -2.905428 -1.022273 12.905428
v 0.986729 -0.056459 0.058529
v 0.986729 3.657932 0.058529
v -0.058499 3.657932 -1.001278
v -0.058499 -0.056461 -1.001278
vt 0.408507 0.381094
vt 0.409509 0.381088
vt 0.410789 0.382664
vt 0.410442 0.381070
vt 0.411243 0.381040
vt 0.411857 0.381002
vt 0.032660 0.911805
vt 0.033209 0.911804
vt 0.031518 0.913382
vt 0.033793 0.911804
vt 0.834334 0.823226
vt 0.719514 0.810498
vt 0.832183 0.797770
vt 0.830020 0.759586
vt 0.831351 0.785042
vt 0.717695 0.785042
vt 0.827399 0.581396
vt 0.827230 0.632307
vt 0.820585 0.632307
vt 0.828275 0.530484
vt 0.820754 0.581396
vt 0.719514 0.428661
vt 0.720717 0.415933
vt 0.834334 0.415933
vt 0.718527 0.441389
vt 0.832183 0.441389
vt 0.831351 0.454117
vt 0.821098 0.683219
vt 0.827743 0.683219
vt 0.829020 0.734130
vt 0.823025 0.751248
vt 0.823025 0.487911
vt 0.830020 0.479572
vt 0.716365 0.759586
vt 0.118551 0.589829
vt 0.118551 0.911806
vt 0.718527 0.797770
vt 0.863832 0.326422
vt 0.749402 0.326441
vt 0.779139 0.004461
vt 0.778554 0.004461
vt 0.776825 0.002880
vt 0.778001 0.004460
vt 0.777517 0.004458
vt 0.002901 0.381076
vt 0.003451 0.381105
vt 0.003711 0.382699
vt 0.004091 0.381123
vt 0.004777 0.381129
vt 0.716365 0.479572
vt 0.717695 0.454117
vt 0.720717 0.823226
vt 0.821630 0.530484
vt 0.822375 0.734130
vt 0.724893 0.487911
vt 0.724893 0.751248
vt 0.004034 0.589826
vt 0.863832 0.004447
vt 0.207255 0.483374
vt 0.000000 0.000000
vt 0.258140 0.483369
vt 0.309025 0.483365
vt 0.004777 0.062685
vt 0.408507 0.062650
vt 0.105485 0.483382
vt 0.156370 0.483378
vt 0.245482 0.006129
vt 0.194459 0.004692
vt 0.041627 0.039945
vt 0.067043 0.028584
vt 0.092498 0.020030
vt 0.143440 0.009091
vt 0.296480 0.013624
vt 0.347454 0.028560
vt 0.372871 0.039916
vt 0.385555 0.047007
vn 0.023400 0.991200 -0.130600
vn 0.001100 0.946300 -0.323300
vn -0.099100 0.883400 -0.458100
vn -0.311300 0.787300 -0.532100
vn -0.666600 0.575000 -0.474400
vn 0.998100 0.061200 -0.004100
vn 0.984900 0.009000 -0.172700
vn 0.988800 0.004500 -0.149200
vn 0.974600 0.009100 -0.223700
vn 0.916500 0.005600 -0.400000
vn 0.950500 0.008700 -0.310400
vn 0.950500 0.008700 -0.310600
vn 0.642100 0.000500 -0.766600
vn 0.727300 0.000500 -0.686200
vn 0.538500 0.002100 -0.842600
vn 0.642000 0.000500 -0.766700
vn 0.149200 0.004500 -0.988800
vn 0.099700 0.000000 -0.995000
vn 0.172700 0.009000 -0.984900
vn 0.230600 0.008300 -0.973000
vn 0.223700 0.009100 -0.974600
vn 0.310400 0.008700 -0.950500
vn 0.805000 0.000500 -0.593200
vn 0.805000 0.000500 -0.593300
vn 0.870200 0.001200 -0.492700
vn 0.753700 0.497200 -0.429700
vn 0.445100 0.497100 -0.744800
vn 0.417200 0.006800 -0.908700
vn 0.891600 0.049700 -0.450100
vn -0.707100 0.000000 -0.707100
vn 0.318400 0.077100 -0.944800
vn 0.973000 0.008300 -0.230600
vn 0.707100 0.000000 0.707100
vn 0.941000 0.053500 -0.334200
vn 0.002800 0.042000 -0.999100
vn 0.337900 0.409600 0.847400
vn 0.371200 0.480400 0.794600
vn 0.157800 0.976200 0.148700
vn 0.450400 0.728600 0.516000
vn 0.387600 0.885600 0.255600
vn 0.213700 0.973800 0.077700
vn 0.005600 0.999600 0.027000
vn 0.450100 0.049700 -0.891600
vn 0.310600 0.008700 -0.950500
vn 0.995000 0.000000 -0.099700
vn 0.542500 0.000500 -0.840000
vn 0.867800 0.000500 -0.496800
vn 0.000000 1.000000 0.000000
vn -0.712000 -0.000000 0.702200
vn 0.000000 0.000000 1.000000
vn 0.002100 -0.016200 0.999900
vn -0.064600 0.995800 0.064600
vn -0.000100 1.000000 0.000100
vn -0.999900 -0.000000 0.013600
vn 0.000000 -0.040800 0.999200
vn -0.999200 -0.040800 -0.000000
vn -0.013500 -0.000000 0.999900
vn 0.000000 -1.000000 -0.000000
vn -0.026300 0.999300 0.026300
vn -0.000200 1.000000 -0.000200
vn 0.000200 1.000000 0.000200
vn -0.999900 -0.016200 -0.002100
vn -0.006700 0.999900 0.006600
vn -0.048200 0.997700 0.047400
vn -0.006800 0.999900 0.006900
vn -0.048800 0.997600 0.049300
vn 0.009600 0.999900 0.001500
vn -0.000200 1.000000 0.004300
vn -0.004100 1.000000 0.005600
vn -0.006100 0.999900 0.006500
vn -0.006200 0.999900 0.005400
vn -0.004800 1.000000 0.001800
vn -0.008200 0.999900 0.008300
vn 0.000300 0.999800 -0.016700
usemtl Material.014
s off
f 53/1/1 56/2/1 88/3/1
f 56/2/2 57/4/2 88/3/2
f 57/4/3 58/5/3 88/3/3
f 58/5/4 59/6/4 88/3/4
f 59/7/5 89/8/5 88/9/5
f 60/8/6 54/10/6 73/9/6
s 1
f 30/11/7 5/12/8 48/13/9
f 45/14/10 46/15/11 6/16/12
f 41/17/13 50/18/14 14/19/14
f 39/20/15 41/17/13 13/21/16
f 10/22/17 92/23/18 93/24/19
f 9/25/20 33/26/21 35/27/22
f 15/28/23 43/29/24 52/30/25
f 52/30/25 45/14/10 17/31/26
f 11/32/27 37/33/28 39/20/15
f 17/31/26 45/14/10 18/34/29
f 21/35/30 2/36/30 54/10/31
f 46/15/11 48/13/9 3/37/32
f 20/38/33 91/39/33 22/40/34
f 22/40/34 87/41/35 86/42/35
f 25/41/36 26/43/37 72/42/38
f 26/43/37 27/44/39 72/42/38
f 27/45/39 28/46/40 72/47/38
f 28/46/40 29/48/41 72/47/38
f 29/48/41 23/49/42 72/47/38
f 37/33/28 19/50/43 8/51/44
f 14/19/14 50/18/14 43/29/24
f 3/37/32 48/13/9 5/12/8
f 30/11/7 90/52/45 5/12/8
f 18/34/29 45/14/10 6/16/12
f 13/21/16 41/17/13 14/19/14
f 12/53/46 39/20/15 13/21/16
f 93/24/19 33/26/21 10/22/17
f 9/25/20 10/22/17 33/26/21
f 8/51/44 9/25/20 35/27/22
f 16/54/47 15/28/23 52/30/25
f 16/54/47 52/30/25 17/31/26
f 11/32/27 7/55/48 19/50/43
f 39/20/15 12/53/46 11/32/27
f 19/50/43 37/33/28 11/32/27
f 4/56/48 17/31/26 18/34/29
f 61/57/30 21/35/30 54/10/31
f 6/16/12 46/15/11 3/37/32
f 1/58/33 20/38/33 22/40/34
f 35/27/22 37/33/28 8/51/44
f 15/28/23 14/19/14 43/29/24
usemtl Material.014_NONE
s off
f 84/59/49 95/59/49 70/60/49
f 70/60/50 96/60/50 85/60/50
f 85/60/49 84/59/49 70/60/49
f 95/59/50 77/59/50 70/60/50
usemtl Material.019
f 94/61/51 82/62/51 68/62/51
f 23/49/52 31/63/52 62/64/52
f 71/65/53 72/47/53 23/49/53
f 69/65/54 97/66/54 81/66/54
f 24/47/55 64/65/55 75/65/55
f 55/3/56 67/3/56 76/62/56
f 79/61/57 94/61/57 68/62/57
f 68/62/58 78/61/58 79/61/58
f 53/1/52 23/49/52 62/64/52
f 23/49/59 53/1/59 65/59/59
f 88/3/53 74/62/53 53/1/53
f 65/59/60 71/65/60 23/49/60
f 53/1/61 74/62/61 65/59/61
f 69/65/62 83/65/62 97/66/62
f 81/66/58 80/66/58 69/65/58
f 66/47/55 24/47/55 75/65/55
f 63/62/56 55/3/56 76/62/56
s 1
f 40/67/63 62/64/64 49/68/65
f 31/63/66 47/69/67 44/70/68
f 44/70/68 51/71/69 31/63/66
f 42/72/70 49/68/65 31/63/66
f 40/67/63 38/73/71 62/64/64
f 36/74/72 34/75/73 32/76/74
f 32/76/74 62/64/64 36/74/72
f 31/63/66 51/71/69 42/72/70
f 49/68/65 62/64/64 31/63/66
f 36/74/72 62/64/64 38/73/71
